<svg width="197" height="197" viewBox="0 0 197 197" fill="none" xmlns="http://www.w3.org/2000/svg">
  <g clip-path="url(#clip0_928_621)">
    <path d="M148.124 81.5962V180.345C148.124 186.262 143.327 191.058 137.411 191.058V166.419C126.916 183.21 110.736 191.058 93.2452 191.058C63.0724 191.058 38.3652 168.382 38.3652 135.455C38.3652 102.528 63.0724 80.2871 93.2452 80.2871C110.736 80.2871 128.447 88.3542 137.411 105.145V92.3077C137.411 86.3912 142.207 81.5947 148.124 81.5947V81.5962ZM49.0782 135.457C49.0782 162.494 68.7565 180.593 93.2437 180.593C153.371 180.593 153.371 90.5371 93.2437 90.5371C68.755 90.5371 49.0782 108.417 49.0782 135.455V135.457Z" fill="#F8FAFC"/>
    <g clip-path="url(#clip1_928_621)">
      <path d="M147.445 43.4763C144.323 40.7019 136.363 34.3856 124.372 32.7702C116.316 31.6815 109.52 33.1364 105.083 34.6013C96.4456 37.461 90.784 42.3424 87.9633 45.172C87.898 45.2272 87.8428 45.2874 87.7876 45.3426C87.7625 45.3727 87.7374 45.3977 87.7073 45.4278L78.3767 54.7242C67.676 65.3902 50.355 65.4403 39.584 54.8446L39.4233 54.6891L79.6114 14.644C90.3574 3.9279 107.779 3.9279 118.525 14.644L147.45 43.4763H147.445Z" fill="url(#paint0_linear_928_621)"/>
      <path d="M158.346 54.3424C152.976 59.6955 145.929 62.3745 138.892 62.3745C131.855 62.3745 124.804 59.6955 119.438 54.3424L110.489 45.4324C104.205 39.1612 94.0012 39.1612 87.7173 45.4324C90.4376 42.658 96.1745 37.5558 105.088 34.6058C109.525 33.1409 116.321 31.686 124.377 32.7747C136.368 34.3901 144.328 40.7014 147.45 43.4758L158.351 54.3424H158.346Z" fill="#FF9A00"/>
    </g>
  </g>
  <defs>
    <linearGradient id="paint0_linear_928_621" x1="39.4334" y1="34.6816" x2="147.445" y2="34.6816" gradientUnits="userSpaceOnUse">
      <stop stop-color="#FF0018"/>
      <stop offset="0.16" stop-color="#FF0417"/>
      <stop offset="0.32" stop-color="#FF1015"/>
      <stop offset="0.49" stop-color="#FF2512"/>
      <stop offset="0.66" stop-color="#FF420D"/>
      <stop offset="0.82" stop-color="#FF6707"/>
      <stop offset="0.99" stop-color="#FF9500"/>
      <stop offset="1" stop-color="#FF9700"/>
    </linearGradient>
    <clipPath id="clip0_928_621">
      <rect width="121.59" height="187.342" fill="white" transform="translate(36.8179 3.06836)"/>
    </clipPath>
    <clipPath id="clip1_928_621">
      <rect width="118.913" height="56.1493" fill="white" transform="translate(39.4321 6.60669)"/>
    </clipPath>
  </defs>
</svg>
