<svg width="145" height="42" viewBox="0 0 145 42" fill="none" xmlns="http://www.w3.org/2000/svg">
<mask id="mask0_14861_118396" style="mask-type:luminance" maskUnits="userSpaceOnUse" x="0" y="0" width="145" height="42">
<path d="M145 0H0V41.641H145V0Z" fill="white"/>
</mask>
<g mask="url(#mask0_14861_118396)">
<path d="M24.8534 16.9487V39.1754C24.8534 40.5104 23.7671 41.5915 22.4282 41.5915V36.0827C20.0512 39.87 16.3885 41.6409 12.4273 41.6409C5.59496 41.6409 0 36.5257 0 29.098C0 21.6703 5.59496 16.6538 12.4261 16.6538C16.3873 16.6538 20.3968 18.4741 22.4269 22.2613V19.3661C22.4269 18.031 23.5133 16.95 24.8522 16.95L24.8534 16.9487ZM2.42528 29.098C2.42528 35.1967 6.8807 39.2801 12.4261 39.2801C26.0401 39.2801 26.0401 18.9664 12.4261 18.9664C6.8807 18.9664 2.42528 22.9993 2.42528 29.0992V29.098Z" fill="#F8FAFC"/>
<path d="M35.0021 9.62012V16.9491H43.3196C43.3196 18.0627 42.4109 18.9655 41.2895 18.9655H35.0021V33.7705C35.0021 37.0654 35.6957 39.378 39.5071 39.378C40.1185 39.378 40.7686 39.2732 41.4261 39.0926C42.5184 38.7905 43.6688 39.325 44.1123 40.3627C42.5777 41.1006 41.043 41.5918 39.5082 41.5918C34.3097 41.5918 32.6264 38.5424 32.6264 33.7716V18.9667H27.4277C27.4277 17.8532 28.3365 16.9503 29.4579 16.9503H32.6264V12.2409C32.6264 10.8913 33.6523 9.76097 35.0021 9.62129V9.62012Z" fill="#F8FAFC"/>
<path d="M50.2504 6.81616V21.4742C52.231 17.9818 55.6472 16.654 59.0622 16.6047C65.8946 16.6047 69.3107 20.983 69.3107 27.3273V39.2309C69.3107 40.5347 68.2473 41.5916 66.9338 41.5916V27.3273C66.9338 22.3109 64.5568 18.916 59.0622 18.916C53.9131 18.916 50.3483 22.8514 50.3483 27.9172V39.279C50.3483 40.5563 49.3067 41.5905 48.0209 41.5905H47.9219V9.12875C47.9219 7.85148 48.9635 6.81737 50.2493 6.81737L50.2504 6.81616Z" fill="#F8FAFC"/>
<path d="M110.898 41.5917V26.6881C110.898 22.0148 107.728 18.7198 103.075 18.7198C98.4211 18.7198 95.2038 22.1628 95.2038 26.8362V39.1815C95.2038 40.513 94.1167 41.5917 92.778 41.5917V26.8362C92.778 22.1628 89.5602 18.7691 84.9066 18.7691C80.253 18.7691 77.0845 22.1628 77.0845 26.8362V39.1815C77.0845 40.513 75.9981 41.5917 74.6592 41.5917V19.211C74.6592 17.9614 75.6791 16.9489 76.9371 16.9489L76.9866 20.9831C78.6699 17.7856 81.7888 16.4578 84.9573 16.4578C88.6707 16.4578 92.581 18.1299 94.0164 22.459C95.502 18.4742 99.3148 16.4578 103.077 16.4578C109.066 16.4578 113.325 20.6387 113.325 26.6892V39.1827C113.325 40.5142 112.238 41.5928 110.899 41.5928L110.898 41.5917Z" fill="#F8FAFC"/>
<path d="M142.681 16.9487V39.1754C142.681 40.5104 141.595 41.5915 140.256 41.5915V36.0827C137.88 39.87 134.216 41.6409 130.255 41.6409C123.423 41.6409 117.829 36.5257 117.829 29.098C117.829 21.6703 123.423 16.6538 130.255 16.6538C134.215 16.6538 138.225 18.4741 140.256 22.2613V19.3661C140.256 18.031 141.342 16.95 142.681 16.95V16.9487ZM120.254 29.098C120.254 35.1967 124.709 39.2801 130.255 39.2801C143.87 39.2801 143.87 18.9664 130.255 18.9664C124.709 18.9664 120.254 22.9993 120.254 29.0992V29.098Z" fill="#F8FAFC"/>
<mask id="mask1_14861_118396" style="mask-type:luminance" maskUnits="userSpaceOnUse" x="117" y="-1" width="28" height="14">
<path d="M144.999 -0.000244141H117.458V12.9613H144.999V-0.000244141Z" fill="white"/>
</mask>
<g mask="url(#mask1_14861_118396)">
<path d="M142.474 8.51074C141.752 7.8703 139.908 6.41223 137.13 6.03932C135.265 5.78801 133.691 6.12387 132.664 6.46203C130.663 7.12216 129.351 8.24901 128.698 8.90218C128.683 8.91492 128.67 8.92882 128.657 8.94155C128.651 8.94851 128.646 8.9543 128.638 8.96124L126.478 11.1073C123.999 13.5694 119.988 13.581 117.492 11.135L117.455 11.0991L126.763 1.85506C129.252 -0.618677 133.287 -0.618677 135.776 1.85506L142.476 8.51074H142.474Z" fill="url(#paint0_linear_14861_118396)"/>
<path d="M145.001 11.0194C143.757 12.2551 142.124 12.8736 140.495 12.8736C138.865 12.8736 137.232 12.2551 135.989 11.0194L133.916 8.96263C132.46 7.51499 130.098 7.51499 128.642 8.96263C129.272 8.32219 130.601 7.1444 132.666 6.46342C133.692 6.12525 135.266 5.7894 137.132 6.04071C139.91 6.41362 141.754 7.87053 142.476 8.51096L145.002 11.0194H145.001Z" fill="#FF9A00"/>
</g>
</g>
<defs>
<linearGradient id="paint0_linear_14861_118396" x1="117.458" y1="6.48056" x2="142.474" y2="6.48056" gradientUnits="userSpaceOnUse">
<stop stop-color="#FF0018"/>
<stop offset="0.16" stop-color="#FF0417"/>
<stop offset="0.32" stop-color="#FF1015"/>
<stop offset="0.49" stop-color="#FF2512"/>
<stop offset="0.66" stop-color="#FF420D"/>
<stop offset="0.82" stop-color="#FF6707"/>
<stop offset="0.99" stop-color="#FF9500"/>
<stop offset="1" stop-color="#FF9700"/>
</linearGradient>
</defs>
</svg>
